<mxfile host="app.diagrams.net" modified="2023-05-11T09:45:11.189Z" agent="Mozilla/5.0 (Windows NT 10.0; Win64; x64) AppleWebKit/537.36 (KHTML, like Gecko) Chrome/113.0.0.0 Safari/537.36" etag="TxQ3Y0o9mTZOW4Zm__Oh" version="21.2.4">
  <diagram name="Page-1" id="ivi_GzzBbnTKShinMN6c">
    <mxGraphModel dx="1080" dy="1016" grid="1" gridSize="10" guides="1" tooltips="1" connect="1" arrows="1" fold="1" page="1" pageScale="1" pageWidth="850" pageHeight="1100" math="0" shadow="0">
      <root>
        <mxCell id="0" />
        <mxCell id="1" parent="0" />
        <mxCell id="HnepRbR7UYT4aC-ZY9RI-1" value="Igrao se" style="rhombus;whiteSpace=wrap;html=1;fillColor=#e1d5e7;strokeColor=#9673a6;" vertex="1" parent="1">
          <mxGeometry x="850" y="575" width="80" height="80" as="geometry" />
        </mxCell>
        <mxCell id="HnepRbR7UYT4aC-ZY9RI-2" value="Turnir" style="rounded=0;whiteSpace=wrap;html=1;fillColor=#f8cecc;strokeColor=#b85450;" vertex="1" parent="1">
          <mxGeometry x="840" y="705" width="100" height="40" as="geometry" />
        </mxCell>
        <mxCell id="HnepRbR7UYT4aC-ZY9RI-3" value="" style="endArrow=none;html=1;rounded=0;exitX=0.5;exitY=0;exitDx=0;exitDy=0;entryX=0.5;entryY=1;entryDx=0;entryDy=0;" edge="1" parent="1" source="HnepRbR7UYT4aC-ZY9RI-2" target="HnepRbR7UYT4aC-ZY9RI-1">
          <mxGeometry width="50" height="50" relative="1" as="geometry">
            <mxPoint x="840" y="635" as="sourcePoint" />
            <mxPoint x="890" y="585" as="targetPoint" />
          </mxGeometry>
        </mxCell>
        <mxCell id="HnepRbR7UYT4aC-ZY9RI-4" value="Meč" style="rounded=0;whiteSpace=wrap;html=1;fillColor=#f8cecc;strokeColor=#b85450;" vertex="1" parent="1">
          <mxGeometry x="840" y="475" width="100" height="40" as="geometry" />
        </mxCell>
        <mxCell id="HnepRbR7UYT4aC-ZY9RI-5" value="(1,N)" style="text;html=1;strokeColor=none;fillColor=none;align=center;verticalAlign=middle;whiteSpace=wrap;rounded=0;" vertex="1" parent="1">
          <mxGeometry x="900" y="655" width="60" height="30" as="geometry" />
        </mxCell>
        <mxCell id="HnepRbR7UYT4aC-ZY9RI-6" value="(1,1)" style="text;html=1;strokeColor=none;fillColor=none;align=center;verticalAlign=middle;whiteSpace=wrap;rounded=0;" vertex="1" parent="1">
          <mxGeometry x="890" y="535" width="60" height="30" as="geometry" />
        </mxCell>
        <mxCell id="HnepRbR7UYT4aC-ZY9RI-7" value="Sudi" style="rhombus;whiteSpace=wrap;html=1;fillColor=#e1d5e7;strokeColor=#9673a6;" vertex="1" parent="1">
          <mxGeometry x="660" y="455" width="80" height="80" as="geometry" />
        </mxCell>
        <mxCell id="HnepRbR7UYT4aC-ZY9RI-8" value="" style="endArrow=none;html=1;rounded=0;exitX=1;exitY=0.5;exitDx=0;exitDy=0;" edge="1" parent="1" source="HnepRbR7UYT4aC-ZY9RI-7">
          <mxGeometry width="50" height="50" relative="1" as="geometry">
            <mxPoint x="790" y="545" as="sourcePoint" />
            <mxPoint x="840" y="495" as="targetPoint" />
          </mxGeometry>
        </mxCell>
        <mxCell id="HnepRbR7UYT4aC-ZY9RI-9" value="Sudac" style="rounded=0;whiteSpace=wrap;html=1;fillColor=#f8cecc;strokeColor=#b85450;" vertex="1" parent="1">
          <mxGeometry x="650" y="595" width="100" height="40" as="geometry" />
        </mxCell>
        <mxCell id="HnepRbR7UYT4aC-ZY9RI-10" value="(1,N)" style="text;html=1;strokeColor=none;fillColor=none;align=center;verticalAlign=middle;whiteSpace=wrap;rounded=0;" vertex="1" parent="1">
          <mxGeometry x="750" y="495" width="60" height="30" as="geometry" />
        </mxCell>
        <mxCell id="HnepRbR7UYT4aC-ZY9RI-11" value="(1,N)" style="text;html=1;align=center;verticalAlign=middle;resizable=0;points=[];autosize=1;strokeColor=none;fillColor=none;" vertex="1" parent="1">
          <mxGeometry x="705" y="545" width="50" height="30" as="geometry" />
        </mxCell>
        <mxCell id="HnepRbR7UYT4aC-ZY9RI-12" value="Igra" style="rhombus;whiteSpace=wrap;html=1;fillColor=#e1d5e7;strokeColor=#9673a6;" vertex="1" parent="1">
          <mxGeometry x="1060" y="455" width="80" height="80" as="geometry" />
        </mxCell>
        <mxCell id="HnepRbR7UYT4aC-ZY9RI-13" value="" style="endArrow=none;html=1;rounded=0;exitX=1;exitY=0.5;exitDx=0;exitDy=0;entryX=0;entryY=0.5;entryDx=0;entryDy=0;" edge="1" parent="1" source="HnepRbR7UYT4aC-ZY9RI-4" target="HnepRbR7UYT4aC-ZY9RI-12">
          <mxGeometry width="50" height="50" relative="1" as="geometry">
            <mxPoint x="960" y="545" as="sourcePoint" />
            <mxPoint x="1010" y="495" as="targetPoint" />
          </mxGeometry>
        </mxCell>
        <mxCell id="HnepRbR7UYT4aC-ZY9RI-14" value="Igrač" style="rounded=0;whiteSpace=wrap;html=1;fillColor=#f8cecc;strokeColor=#b85450;" vertex="1" parent="1">
          <mxGeometry x="1250" y="475" width="100" height="40" as="geometry" />
        </mxCell>
        <mxCell id="HnepRbR7UYT4aC-ZY9RI-15" value="(1,N)" style="text;html=1;strokeColor=none;fillColor=none;align=center;verticalAlign=middle;whiteSpace=wrap;rounded=0;" vertex="1" parent="1">
          <mxGeometry x="1170" y="505" width="60" height="30" as="geometry" />
        </mxCell>
        <mxCell id="HnepRbR7UYT4aC-ZY9RI-16" value="(1,N)" style="text;html=1;strokeColor=none;fillColor=none;align=center;verticalAlign=middle;whiteSpace=wrap;rounded=0;" vertex="1" parent="1">
          <mxGeometry x="970" y="495" width="60" height="30" as="geometry" />
        </mxCell>
        <mxCell id="HnepRbR7UYT4aC-ZY9RI-17" value="Sudjeluje" style="rhombus;whiteSpace=wrap;html=1;fillColor=#e1d5e7;strokeColor=#9673a6;" vertex="1" parent="1">
          <mxGeometry x="1060" y="685" width="80" height="80" as="geometry" />
        </mxCell>
        <mxCell id="HnepRbR7UYT4aC-ZY9RI-18" value="" style="endArrow=none;html=1;rounded=0;exitX=1;exitY=0.5;exitDx=0;exitDy=0;" edge="1" parent="1" source="HnepRbR7UYT4aC-ZY9RI-2">
          <mxGeometry width="50" height="50" relative="1" as="geometry">
            <mxPoint x="1010" y="775" as="sourcePoint" />
            <mxPoint x="1060" y="725" as="targetPoint" />
          </mxGeometry>
        </mxCell>
        <mxCell id="HnepRbR7UYT4aC-ZY9RI-19" value="(1,N)" style="text;html=1;strokeColor=none;fillColor=none;align=center;verticalAlign=middle;whiteSpace=wrap;rounded=0;" vertex="1" parent="1">
          <mxGeometry x="970" y="725" width="60" height="30" as="geometry" />
        </mxCell>
        <mxCell id="HnepRbR7UYT4aC-ZY9RI-20" value="&lt;font style=&quot;font-size: 9px;&quot;&gt;&lt;u&gt;Personal ID&lt;/u&gt;&lt;/font&gt;" style="ellipse;whiteSpace=wrap;html=1;" vertex="1" parent="1">
          <mxGeometry x="670" y="710" width="60" height="30" as="geometry" />
        </mxCell>
        <mxCell id="HnepRbR7UYT4aC-ZY9RI-21" value="" style="endArrow=none;html=1;rounded=0;entryX=0.5;entryY=0;entryDx=0;entryDy=0;" edge="1" parent="1" target="HnepRbR7UYT4aC-ZY9RI-47">
          <mxGeometry width="50" height="50" relative="1" as="geometry">
            <mxPoint x="700" y="635" as="sourcePoint" />
            <mxPoint x="699.81" y="655" as="targetPoint" />
          </mxGeometry>
        </mxCell>
        <mxCell id="HnepRbR7UYT4aC-ZY9RI-22" value="&lt;font size=&quot;1&quot;&gt;&lt;u&gt;Name&lt;/u&gt;&lt;/font&gt;" style="ellipse;whiteSpace=wrap;html=1;" vertex="1" parent="1">
          <mxGeometry x="860" y="860" width="60" height="30" as="geometry" />
        </mxCell>
        <mxCell id="HnepRbR7UYT4aC-ZY9RI-23" value="&lt;font size=&quot;1&quot;&gt;&lt;span style=&quot;font-size: 9px;&quot;&gt;Starting date&lt;/span&gt;&lt;/font&gt;" style="ellipse;whiteSpace=wrap;html=1;" vertex="1" parent="1">
          <mxGeometry x="750" y="860" width="60" height="30" as="geometry" />
        </mxCell>
        <mxCell id="HnepRbR7UYT4aC-ZY9RI-24" value="" style="endArrow=none;html=1;rounded=0;entryX=0.5;entryY=1;entryDx=0;entryDy=0;exitX=0.5;exitY=0;exitDx=0;exitDy=0;" edge="1" parent="1" source="HnepRbR7UYT4aC-ZY9RI-48" target="HnepRbR7UYT4aC-ZY9RI-2">
          <mxGeometry width="50" height="50" relative="1" as="geometry">
            <mxPoint x="840" y="785" as="sourcePoint" />
            <mxPoint x="890" y="735" as="targetPoint" />
          </mxGeometry>
        </mxCell>
        <mxCell id="HnepRbR7UYT4aC-ZY9RI-25" value="" style="endArrow=none;html=1;rounded=0;entryX=0.5;entryY=1;entryDx=0;entryDy=0;exitX=0.5;exitY=0;exitDx=0;exitDy=0;" edge="1" parent="1" source="HnepRbR7UYT4aC-ZY9RI-49" target="HnepRbR7UYT4aC-ZY9RI-2">
          <mxGeometry width="50" height="50" relative="1" as="geometry">
            <mxPoint x="850" y="795" as="sourcePoint" />
            <mxPoint x="900" y="755" as="targetPoint" />
            <Array as="points">
              <mxPoint x="780" y="795" />
              <mxPoint x="890" y="795" />
            </Array>
          </mxGeometry>
        </mxCell>
        <mxCell id="HnepRbR7UYT4aC-ZY9RI-26" value="&lt;font style=&quot;font-size: 9px;&quot;&gt;&lt;u&gt;Match ID&lt;/u&gt;&lt;/font&gt;" style="ellipse;whiteSpace=wrap;html=1;" vertex="1" parent="1">
          <mxGeometry x="730" y="340" width="60" height="30" as="geometry" />
        </mxCell>
        <mxCell id="HnepRbR7UYT4aC-ZY9RI-27" value="" style="endArrow=none;html=1;rounded=0;entryX=0.5;entryY=1;entryDx=0;entryDy=0;exitX=0.5;exitY=0;exitDx=0;exitDy=0;" edge="1" parent="1" source="HnepRbR7UYT4aC-ZY9RI-4" target="HnepRbR7UYT4aC-ZY9RI-44">
          <mxGeometry width="50" height="50" relative="1" as="geometry">
            <mxPoint x="890" y="355" as="sourcePoint" />
            <mxPoint x="1047.5" y="370" as="targetPoint" />
            <Array as="points">
              <mxPoint x="890" y="415" />
              <mxPoint x="1030" y="415" />
            </Array>
          </mxGeometry>
        </mxCell>
        <mxCell id="HnepRbR7UYT4aC-ZY9RI-28" value="" style="endArrow=none;html=1;rounded=0;" edge="1" parent="1">
          <mxGeometry width="50" height="50" relative="1" as="geometry">
            <mxPoint x="1140" y="725" as="sourcePoint" />
            <mxPoint x="1300" y="725" as="targetPoint" />
          </mxGeometry>
        </mxCell>
        <mxCell id="HnepRbR7UYT4aC-ZY9RI-29" value="(1,N)" style="text;html=1;strokeColor=none;fillColor=none;align=center;verticalAlign=middle;whiteSpace=wrap;rounded=0;" vertex="1" parent="1">
          <mxGeometry x="1160" y="725" width="60" height="30" as="geometry" />
        </mxCell>
        <mxCell id="HnepRbR7UYT4aC-ZY9RI-30" value="&lt;font style=&quot;font-size: 9px;&quot;&gt;&lt;u&gt;Personal ID&lt;/u&gt;&lt;/font&gt;" style="ellipse;whiteSpace=wrap;html=1;" vertex="1" parent="1">
          <mxGeometry x="1570" y="565" width="60" height="30" as="geometry" />
        </mxCell>
        <mxCell id="HnepRbR7UYT4aC-ZY9RI-31" value="&lt;font size=&quot;1&quot;&gt;&lt;span style=&quot;font-size: 9px;&quot;&gt;As serves&lt;/span&gt;&lt;/font&gt;" style="ellipse;whiteSpace=wrap;html=1;" vertex="1" parent="1">
          <mxGeometry x="1570" y="525" width="60" height="30" as="geometry" />
        </mxCell>
        <mxCell id="HnepRbR7UYT4aC-ZY9RI-32" value="&lt;font size=&quot;1&quot;&gt;&lt;span style=&quot;font-size: 9px;&quot;&gt;Resault&lt;/span&gt;&lt;/font&gt;" style="ellipse;whiteSpace=wrap;html=1;" vertex="1" parent="1">
          <mxGeometry x="1570" y="480" width="60" height="30" as="geometry" />
        </mxCell>
        <mxCell id="HnepRbR7UYT4aC-ZY9RI-33" value="" style="endArrow=none;html=1;rounded=0;entryX=0;entryY=0.5;entryDx=0;entryDy=0;exitX=1;exitY=0.5;exitDx=0;exitDy=0;" edge="1" parent="1" source="HnepRbR7UYT4aC-ZY9RI-14" target="HnepRbR7UYT4aC-ZY9RI-32">
          <mxGeometry width="50" height="50" relative="1" as="geometry">
            <mxPoint x="1150" y="525" as="sourcePoint" />
            <mxPoint x="1200" y="475" as="targetPoint" />
          </mxGeometry>
        </mxCell>
        <mxCell id="HnepRbR7UYT4aC-ZY9RI-34" value="" style="endArrow=none;html=1;rounded=0;entryX=0;entryY=0.5;entryDx=0;entryDy=0;exitX=1;exitY=0.5;exitDx=0;exitDy=0;" edge="1" parent="1" source="HnepRbR7UYT4aC-ZY9RI-14" target="HnepRbR7UYT4aC-ZY9RI-31">
          <mxGeometry width="50" height="50" relative="1" as="geometry">
            <mxPoint x="1150" y="525" as="sourcePoint" />
            <mxPoint x="1200" y="475" as="targetPoint" />
            <Array as="points">
              <mxPoint x="1450" y="495" />
              <mxPoint x="1450" y="540" />
            </Array>
          </mxGeometry>
        </mxCell>
        <mxCell id="HnepRbR7UYT4aC-ZY9RI-35" value="" style="endArrow=none;html=1;rounded=0;entryX=0.017;entryY=0.378;entryDx=0;entryDy=0;entryPerimeter=0;exitX=1;exitY=0.5;exitDx=0;exitDy=0;" edge="1" parent="1" source="HnepRbR7UYT4aC-ZY9RI-14" target="HnepRbR7UYT4aC-ZY9RI-30">
          <mxGeometry width="50" height="50" relative="1" as="geometry">
            <mxPoint x="1150" y="525" as="sourcePoint" />
            <mxPoint x="1330" y="285" as="targetPoint" />
            <Array as="points">
              <mxPoint x="1440" y="495" />
              <mxPoint x="1440" y="575" />
            </Array>
          </mxGeometry>
        </mxCell>
        <mxCell id="HnepRbR7UYT4aC-ZY9RI-36" value="" style="endArrow=none;html=1;rounded=0;entryX=0;entryY=0.5;entryDx=0;entryDy=0;exitX=1;exitY=0.5;exitDx=0;exitDy=0;" edge="1" parent="1" source="HnepRbR7UYT4aC-ZY9RI-14" target="HnepRbR7UYT4aC-ZY9RI-39">
          <mxGeometry width="50" height="50" relative="1" as="geometry">
            <mxPoint x="1150" y="525" as="sourcePoint" />
            <mxPoint x="1570.0000000000114" y="660" as="targetPoint" />
            <Array as="points">
              <mxPoint x="1420" y="495" />
              <mxPoint x="1420" y="620" />
            </Array>
          </mxGeometry>
        </mxCell>
        <mxCell id="HnepRbR7UYT4aC-ZY9RI-37" value="" style="endArrow=none;html=1;rounded=0;entryX=0;entryY=0.5;entryDx=0;entryDy=0;exitX=1;exitY=0.5;exitDx=0;exitDy=0;" edge="1" parent="1" source="HnepRbR7UYT4aC-ZY9RI-14" target="HnepRbR7UYT4aC-ZY9RI-65">
          <mxGeometry width="50" height="50" relative="1" as="geometry">
            <mxPoint x="1150" y="525" as="sourcePoint" />
            <mxPoint x="1500" y="705" as="targetPoint" />
            <Array as="points">
              <mxPoint x="1410" y="495" />
              <mxPoint x="1410" y="660" />
            </Array>
          </mxGeometry>
        </mxCell>
        <mxCell id="HnepRbR7UYT4aC-ZY9RI-38" value="" style="endArrow=none;html=1;rounded=0;entryX=0;entryY=0.5;entryDx=0;entryDy=0;exitX=1;exitY=0.5;exitDx=0;exitDy=0;" edge="1" parent="1" source="HnepRbR7UYT4aC-ZY9RI-14" target="HnepRbR7UYT4aC-ZY9RI-66">
          <mxGeometry width="50" height="50" relative="1" as="geometry">
            <mxPoint x="1150" y="525" as="sourcePoint" />
            <mxPoint x="1500" y="755" as="targetPoint" />
            <Array as="points">
              <mxPoint x="1400" y="495" />
              <mxPoint x="1400" y="700" />
            </Array>
          </mxGeometry>
        </mxCell>
        <mxCell id="HnepRbR7UYT4aC-ZY9RI-39" value="&lt;font size=&quot;1&quot;&gt;&lt;span style=&quot;font-size: 9px;&quot;&gt;Poeni&lt;/span&gt;&lt;/font&gt;" style="ellipse;whiteSpace=wrap;html=1;fillColor=#fff2cc;strokeColor=#d6b656;" vertex="1" parent="1">
          <mxGeometry x="1570" y="605" width="60" height="30" as="geometry" />
        </mxCell>
        <mxCell id="HnepRbR7UYT4aC-ZY9RI-40" value="&lt;font style=&quot;font-size: 9px;&quot;&gt;&lt;u&gt;ID igrača&lt;/u&gt;&lt;/font&gt;" style="ellipse;whiteSpace=wrap;html=1;fillColor=#fff2cc;strokeColor=#d6b656;" vertex="1" parent="1">
          <mxGeometry x="1570" y="565" width="60" height="30" as="geometry" />
        </mxCell>
        <mxCell id="HnepRbR7UYT4aC-ZY9RI-41" value="&lt;font size=&quot;1&quot;&gt;&lt;span style=&quot;font-size: 9px;&quot;&gt;As servisi&lt;/span&gt;&lt;/font&gt;" style="ellipse;whiteSpace=wrap;html=1;fillColor=#fff2cc;strokeColor=#d6b656;" vertex="1" parent="1">
          <mxGeometry x="1570" y="525" width="60" height="30" as="geometry" />
        </mxCell>
        <mxCell id="HnepRbR7UYT4aC-ZY9RI-42" value="&lt;font size=&quot;1&quot;&gt;&lt;span style=&quot;font-size: 9px;&quot;&gt;Rezultat&lt;/span&gt;&lt;/font&gt;" style="ellipse;whiteSpace=wrap;html=1;fillColor=#fff2cc;strokeColor=#d6b656;" vertex="1" parent="1">
          <mxGeometry x="1570" y="480" width="60" height="30" as="geometry" />
        </mxCell>
        <mxCell id="HnepRbR7UYT4aC-ZY9RI-43" value="&lt;font size=&quot;1&quot;&gt;&lt;span style=&quot;font-size: 9px;&quot;&gt;Vrijeme igre&lt;/span&gt;&lt;/font&gt;" style="ellipse;whiteSpace=wrap;html=1;fillColor=#fff2cc;strokeColor=#d6b656;" vertex="1" parent="1">
          <mxGeometry x="820" y="340" width="60" height="30" as="geometry" />
        </mxCell>
        <mxCell id="HnepRbR7UYT4aC-ZY9RI-44" value="&lt;font size=&quot;1&quot;&gt;&lt;span style=&quot;font-size: 9px;&quot;&gt;Stadij&lt;/span&gt;&lt;/font&gt;" style="ellipse;whiteSpace=wrap;html=1;fillColor=#fff2cc;strokeColor=#d6b656;" vertex="1" parent="1">
          <mxGeometry x="1000" y="340" width="60" height="30" as="geometry" />
        </mxCell>
        <mxCell id="HnepRbR7UYT4aC-ZY9RI-45" value="&lt;font style=&quot;font-size: 9px;&quot;&gt;Teren&lt;/font&gt;" style="ellipse;whiteSpace=wrap;html=1;fillColor=#fff2cc;strokeColor=#d6b656;" vertex="1" parent="1">
          <mxGeometry x="910" y="340" width="60" height="30" as="geometry" />
        </mxCell>
        <mxCell id="HnepRbR7UYT4aC-ZY9RI-46" value="&lt;font style=&quot;font-size: 9px;&quot;&gt;&lt;u&gt;ID meča&lt;/u&gt;&lt;/font&gt;" style="ellipse;whiteSpace=wrap;html=1;fillColor=#fff2cc;strokeColor=#d6b656;" vertex="1" parent="1">
          <mxGeometry x="730" y="340" width="60" height="30" as="geometry" />
        </mxCell>
        <mxCell id="HnepRbR7UYT4aC-ZY9RI-47" value="&lt;font style=&quot;font-size: 9px;&quot;&gt;&lt;u&gt;ID Suca&lt;/u&gt;&lt;/font&gt;" style="ellipse;whiteSpace=wrap;html=1;fillColor=#fff2cc;strokeColor=#d6b656;" vertex="1" parent="1">
          <mxGeometry x="670" y="710" width="60" height="30" as="geometry" />
        </mxCell>
        <mxCell id="HnepRbR7UYT4aC-ZY9RI-48" value="&lt;font size=&quot;1&quot;&gt;&lt;u&gt;Ime turnira&lt;/u&gt;&lt;/font&gt;" style="ellipse;whiteSpace=wrap;html=1;fillColor=#fff2cc;strokeColor=#d6b656;" vertex="1" parent="1">
          <mxGeometry x="850" y="855" width="80" height="40" as="geometry" />
        </mxCell>
        <mxCell id="HnepRbR7UYT4aC-ZY9RI-49" value="&lt;font size=&quot;1&quot;&gt;Datum početka&lt;/font&gt;" style="ellipse;whiteSpace=wrap;html=1;fillColor=#fff2cc;strokeColor=#d6b656;" vertex="1" parent="1">
          <mxGeometry x="740" y="855" width="80" height="40" as="geometry" />
        </mxCell>
        <mxCell id="HnepRbR7UYT4aC-ZY9RI-50" value="" style="endArrow=none;html=1;rounded=0;entryX=0;entryY=0.5;entryDx=0;entryDy=0;" edge="1" parent="1" target="HnepRbR7UYT4aC-ZY9RI-14">
          <mxGeometry width="50" height="50" relative="1" as="geometry">
            <mxPoint x="1140" y="495" as="sourcePoint" />
            <mxPoint x="1190" y="445" as="targetPoint" />
          </mxGeometry>
        </mxCell>
        <mxCell id="HnepRbR7UYT4aC-ZY9RI-51" value="" style="endArrow=none;html=1;rounded=0;entryX=0.5;entryY=1;entryDx=0;entryDy=0;" edge="1" parent="1" target="HnepRbR7UYT4aC-ZY9RI-7">
          <mxGeometry width="50" height="50" relative="1" as="geometry">
            <mxPoint x="700" y="595" as="sourcePoint" />
            <mxPoint x="750" y="545" as="targetPoint" />
          </mxGeometry>
        </mxCell>
        <mxCell id="HnepRbR7UYT4aC-ZY9RI-52" value="" style="endArrow=none;html=1;rounded=0;entryX=0.5;entryY=1;entryDx=0;entryDy=0;" edge="1" parent="1" target="HnepRbR7UYT4aC-ZY9RI-4">
          <mxGeometry width="50" height="50" relative="1" as="geometry">
            <mxPoint x="890" y="575" as="sourcePoint" />
            <mxPoint x="940" y="525" as="targetPoint" />
          </mxGeometry>
        </mxCell>
        <mxCell id="HnepRbR7UYT4aC-ZY9RI-53" value="" style="endArrow=none;html=1;rounded=0;entryX=0.5;entryY=1;entryDx=0;entryDy=0;" edge="1" parent="1" target="HnepRbR7UYT4aC-ZY9RI-14">
          <mxGeometry width="50" height="50" relative="1" as="geometry">
            <mxPoint x="1300" y="725" as="sourcePoint" />
            <mxPoint x="1290" y="545" as="targetPoint" />
          </mxGeometry>
        </mxCell>
        <mxCell id="HnepRbR7UYT4aC-ZY9RI-54" value="&lt;font size=&quot;1&quot;&gt;&lt;span style=&quot;font-size: 9px;&quot;&gt;Ime&lt;/span&gt;&lt;/font&gt;" style="ellipse;whiteSpace=wrap;html=1;fillColor=#fff2cc;strokeColor=#d6b656;" vertex="1" parent="1">
          <mxGeometry x="520" y="710" width="60" height="30" as="geometry" />
        </mxCell>
        <mxCell id="HnepRbR7UYT4aC-ZY9RI-55" value="&lt;font size=&quot;1&quot;&gt;&lt;span style=&quot;font-size: 9px;&quot;&gt;Prezime&lt;/span&gt;&lt;/font&gt;" style="ellipse;whiteSpace=wrap;html=1;fillColor=#fff2cc;strokeColor=#d6b656;" vertex="1" parent="1">
          <mxGeometry x="590" y="710" width="60" height="30" as="geometry" />
        </mxCell>
        <mxCell id="HnepRbR7UYT4aC-ZY9RI-56" value="" style="endArrow=none;html=1;rounded=0;" edge="1" parent="1">
          <mxGeometry width="50" height="50" relative="1" as="geometry">
            <mxPoint x="620" y="710" as="sourcePoint" />
            <mxPoint x="700" y="665" as="targetPoint" />
            <Array as="points">
              <mxPoint x="620" y="665" />
            </Array>
          </mxGeometry>
        </mxCell>
        <mxCell id="HnepRbR7UYT4aC-ZY9RI-57" value="" style="endArrow=none;html=1;rounded=0;exitX=0.5;exitY=0;exitDx=0;exitDy=0;" edge="1" parent="1" source="HnepRbR7UYT4aC-ZY9RI-54">
          <mxGeometry width="50" height="50" relative="1" as="geometry">
            <mxPoint x="560" y="675" as="sourcePoint" />
            <mxPoint x="700" y="665" as="targetPoint" />
            <Array as="points">
              <mxPoint x="550" y="665" />
            </Array>
          </mxGeometry>
        </mxCell>
        <mxCell id="HnepRbR7UYT4aC-ZY9RI-58" value="&lt;font size=&quot;1&quot;&gt;&lt;span style=&quot;font-size: 9px;&quot;&gt;Prezime&lt;/span&gt;&lt;/font&gt;" style="ellipse;whiteSpace=wrap;html=1;fillColor=#fff2cc;strokeColor=#d6b656;" vertex="1" parent="1">
          <mxGeometry x="1570" y="395" width="60" height="30" as="geometry" />
        </mxCell>
        <mxCell id="HnepRbR7UYT4aC-ZY9RI-59" value="&lt;font size=&quot;1&quot;&gt;&lt;span style=&quot;font-size: 9px;&quot;&gt;Igrač&lt;/span&gt;&lt;/font&gt;" style="ellipse;whiteSpace=wrap;html=1;fillColor=#fff2cc;strokeColor=#d6b656;" vertex="1" parent="1">
          <mxGeometry x="1570" y="435" width="60" height="30" as="geometry" />
        </mxCell>
        <mxCell id="HnepRbR7UYT4aC-ZY9RI-60" value="" style="endArrow=none;html=1;rounded=0;entryX=0;entryY=0.5;entryDx=0;entryDy=0;" edge="1" parent="1" target="HnepRbR7UYT4aC-ZY9RI-58">
          <mxGeometry width="50" height="50" relative="1" as="geometry">
            <mxPoint x="1460" y="495" as="sourcePoint" />
            <mxPoint x="1530" y="435" as="targetPoint" />
            <Array as="points">
              <mxPoint x="1460" y="455" />
              <mxPoint x="1490" y="455" />
              <mxPoint x="1490" y="410" />
            </Array>
          </mxGeometry>
        </mxCell>
        <mxCell id="HnepRbR7UYT4aC-ZY9RI-61" value="" style="endArrow=none;html=1;rounded=0;entryX=0;entryY=0.5;entryDx=0;entryDy=0;exitX=1;exitY=0.5;exitDx=0;exitDy=0;" edge="1" parent="1" source="HnepRbR7UYT4aC-ZY9RI-14" target="HnepRbR7UYT4aC-ZY9RI-59">
          <mxGeometry width="50" height="50" relative="1" as="geometry">
            <mxPoint x="1510" y="485" as="sourcePoint" />
            <mxPoint x="1560" y="435" as="targetPoint" />
            <Array as="points">
              <mxPoint x="1520" y="495" />
              <mxPoint x="1520" y="455" />
            </Array>
          </mxGeometry>
        </mxCell>
        <mxCell id="HnepRbR7UYT4aC-ZY9RI-62" value="" style="endArrow=none;html=1;rounded=0;entryX=0.5;entryY=1;entryDx=0;entryDy=0;exitX=0.5;exitY=0;exitDx=0;exitDy=0;" edge="1" parent="1" source="HnepRbR7UYT4aC-ZY9RI-4" target="HnepRbR7UYT4aC-ZY9RI-26">
          <mxGeometry width="50" height="50" relative="1" as="geometry">
            <mxPoint x="890" y="475" as="sourcePoint" />
            <mxPoint x="760" y="370" as="targetPoint" />
            <Array as="points">
              <mxPoint x="890" y="415" />
              <mxPoint x="760" y="415" />
            </Array>
          </mxGeometry>
        </mxCell>
        <mxCell id="HnepRbR7UYT4aC-ZY9RI-63" value="" style="endArrow=none;html=1;rounded=0;" edge="1" parent="1">
          <mxGeometry width="50" height="50" relative="1" as="geometry">
            <mxPoint x="890" y="415" as="sourcePoint" />
            <mxPoint x="850" y="370" as="targetPoint" />
            <Array as="points">
              <mxPoint x="850" y="415" />
            </Array>
          </mxGeometry>
        </mxCell>
        <mxCell id="HnepRbR7UYT4aC-ZY9RI-64" value="" style="endArrow=none;html=1;rounded=0;entryX=0.5;entryY=1;entryDx=0;entryDy=0;exitX=0.5;exitY=0;exitDx=0;exitDy=0;" edge="1" parent="1" source="HnepRbR7UYT4aC-ZY9RI-4" target="HnepRbR7UYT4aC-ZY9RI-45">
          <mxGeometry width="50" height="50" relative="1" as="geometry">
            <mxPoint x="890" y="475" as="sourcePoint" />
            <mxPoint x="940" y="370" as="targetPoint" />
            <Array as="points">
              <mxPoint x="890" y="415" />
              <mxPoint x="940" y="415" />
            </Array>
          </mxGeometry>
        </mxCell>
        <mxCell id="HnepRbR7UYT4aC-ZY9RI-65" value="&lt;font size=&quot;1&quot;&gt;&lt;span style=&quot;font-size: 9px;&quot;&gt;Forsirane greške&lt;/span&gt;&lt;/font&gt;" style="ellipse;whiteSpace=wrap;html=1;fillColor=#fff2cc;strokeColor=#d6b656;" vertex="1" parent="1">
          <mxGeometry x="1570" y="645" width="60" height="30" as="geometry" />
        </mxCell>
        <mxCell id="HnepRbR7UYT4aC-ZY9RI-66" value="&lt;font size=&quot;1&quot;&gt;&lt;span style=&quot;font-size: 9px;&quot;&gt;Neforsirane greške&lt;/span&gt;&lt;/font&gt;" style="ellipse;whiteSpace=wrap;html=1;fillColor=#fff2cc;strokeColor=#d6b656;" vertex="1" parent="1">
          <mxGeometry x="1570" y="685" width="60" height="30" as="geometry" />
        </mxCell>
        <mxCell id="HnepRbR7UYT4aC-ZY9RI-67" value="&lt;font size=&quot;1&quot;&gt;&lt;span style=&quot;font-size: 9px;&quot;&gt;Uspješni&lt;br&gt;servisi&lt;br&gt;&lt;/span&gt;&lt;/font&gt;" style="ellipse;whiteSpace=wrap;html=1;fillColor=#fff2cc;strokeColor=#d6b656;" vertex="1" parent="1">
          <mxGeometry x="1570" y="725" width="60" height="30" as="geometry" />
        </mxCell>
        <mxCell id="HnepRbR7UYT4aC-ZY9RI-68" value="&lt;font size=&quot;1&quot;&gt;&lt;span style=&quot;font-size: 9px;&quot;&gt;Nespješni&lt;br&gt;servisi&lt;br&gt;&lt;/span&gt;&lt;/font&gt;" style="ellipse;whiteSpace=wrap;html=1;fillColor=#fff2cc;strokeColor=#d6b656;" vertex="1" parent="1">
          <mxGeometry x="1570" y="765" width="60" height="30" as="geometry" />
        </mxCell>
        <mxCell id="HnepRbR7UYT4aC-ZY9RI-69" value="" style="endArrow=none;html=1;rounded=0;exitX=0;exitY=0.5;exitDx=0;exitDy=0;" edge="1" parent="1" source="HnepRbR7UYT4aC-ZY9RI-67">
          <mxGeometry width="50" height="50" relative="1" as="geometry">
            <mxPoint x="1330" y="545" as="sourcePoint" />
            <mxPoint x="1380" y="495" as="targetPoint" />
            <Array as="points">
              <mxPoint x="1380" y="740" />
            </Array>
          </mxGeometry>
        </mxCell>
        <mxCell id="HnepRbR7UYT4aC-ZY9RI-70" value="" style="endArrow=none;html=1;rounded=0;entryX=0;entryY=0.5;entryDx=0;entryDy=0;" edge="1" parent="1" target="HnepRbR7UYT4aC-ZY9RI-68">
          <mxGeometry width="50" height="50" relative="1" as="geometry">
            <mxPoint x="1370" y="495" as="sourcePoint" />
            <mxPoint x="1520" y="785" as="targetPoint" />
            <Array as="points">
              <mxPoint x="1370" y="780" />
            </Array>
          </mxGeometry>
        </mxCell>
        <mxCell id="HnepRbR7UYT4aC-ZY9RI-72" value="&lt;font size=&quot;1&quot;&gt;&lt;span style=&quot;font-size: 9px;&quot;&gt;Izlasci na mrežu&lt;br&gt;&lt;/span&gt;&lt;/font&gt;" style="ellipse;whiteSpace=wrap;html=1;fillColor=#fff2cc;strokeColor=#d6b656;" vertex="1" parent="1">
          <mxGeometry x="1570" y="810" width="60" height="30" as="geometry" />
        </mxCell>
        <mxCell id="HnepRbR7UYT4aC-ZY9RI-73" value="" style="endArrow=none;html=1;rounded=0;entryX=1;entryY=0.5;entryDx=0;entryDy=0;exitX=0;exitY=0.5;exitDx=0;exitDy=0;" edge="1" parent="1" source="HnepRbR7UYT4aC-ZY9RI-72" target="HnepRbR7UYT4aC-ZY9RI-14">
          <mxGeometry width="50" height="50" relative="1" as="geometry">
            <mxPoint x="1310" y="595" as="sourcePoint" />
            <mxPoint x="1360" y="490" as="targetPoint" />
            <Array as="points">
              <mxPoint x="1360" y="825" />
              <mxPoint x="1360" y="495" />
            </Array>
          </mxGeometry>
        </mxCell>
      </root>
    </mxGraphModel>
  </diagram>
</mxfile>
